<?xml version="1.0" encoding="UTF-8" standalone="no"?>
<svg
   width="83.62mm"
   height="80.1799mm"
   viewBox="0 0 316 303"
   version="1.1"
   id="svg17"
   sodipodi:docname="pressure.svg"
   inkscape:version="1.1 (c68e22c387, 2021-05-23)"
   xmlns:inkscape="http://www.inkscape.org/namespaces/inkscape"
   xmlns:sodipodi="http://sodipodi.sourceforge.net/DTD/sodipodi-0.dtd"
   xmlns="http://www.w3.org/2000/svg"
   xmlns:svg="http://www.w3.org/2000/svg">
  <defs
     id="defs21" />
  <sodipodi:namedview
     id="namedview19"
     pagecolor="#ffffff"
     bordercolor="#666666"
     borderopacity="1.0"
     inkscape:pageshadow="2"
     inkscape:pageopacity="0.0"
     inkscape:pagecheckerboard="0"
     inkscape:document-units="mm"
     showgrid="true"
     inkscape:zoom="3.8575492"
     inkscape:cx="105.89625"
     inkscape:cy="148.66952"
     inkscape:window-width="2560"
     inkscape:window-height="1377"
     inkscape:window-x="-8"
     inkscape:window-y="-8"
     inkscape:window-maximized="1"
     inkscape:current-layer="svg17" />
  <path
     id="Selection #1"
     fill="black"
     stroke="black"
     stroke-width="1"
     d="M 72.00,24.00            C 72.00,24.00 91.00,24.00 91.00,24.00              91.00,24.00 91.00,121.00 91.00,121.00              93.68,118.32 102.62,108.20 106.00,108.20              108.63,108.20 112.25,112.19 113.98,114.00              115.36,115.44 117.80,117.78 117.80,119.91              117.80,122.01 115.37,123.85 113.98,125.17              113.98,125.17 103.00,136.00 103.00,136.00              103.00,136.00 88.00,150.98 88.00,150.98              85.86,153.03 83.28,155.97 80.00,154.83              77.65,154.02 72.93,148.93 71.00,147.00              71.00,147.00 53.49,129.96 53.49,129.96              51.30,127.99 46.02,123.73 45.34,121.00              44.38,117.19 53.91,107.61 57.72,108.40              60.54,108.98 69.57,118.57 72.00,121.00              72.00,121.00 72.00,24.00 72.00,24.00 Z            M 224.00,24.00            C 224.00,24.00 243.00,24.00 243.00,24.00              243.00,24.00 243.00,121.00 243.00,121.00              245.57,118.43 254.08,109.22 257.00,108.49              260.97,107.50 270.65,117.05 269.66,121.00              268.98,123.73 263.70,127.99 261.51,129.96              261.51,129.96 242.00,149.00 242.00,149.00              239.59,151.39 235.82,156.15 232.00,154.83              229.91,154.11 226.63,150.62 225.00,149.00              225.00,149.00 212.00,136.00 212.00,136.00              212.00,136.00 201.02,125.58 201.02,125.58              199.48,124.17 197.20,122.29 197.20,120.00              197.20,117.77 199.58,115.50 201.02,114.00              202.75,112.19 206.37,108.20 209.00,108.20              212.38,108.20 221.32,118.32 224.00,121.00              224.00,121.00 224.00,24.00 224.00,24.00 Z            M 148.00,46.00            C 148.00,46.00 167.00,46.00 167.00,46.00              167.00,46.00 167.00,143.00 167.00,143.00              169.11,140.89 178.91,130.89 181.32,130.40              185.11,129.63 194.61,139.21 193.66,143.00              192.97,145.78 185.56,152.37 183.17,154.49              183.17,154.49 157.00,179.00 157.00,179.00              157.00,179.00 135.58,158.00 135.58,158.00              132.69,155.47 123.11,146.86 121.74,144.00              119.39,139.07 130.38,129.73 133.68,130.40              136.09,130.89 145.89,140.89 148.00,143.00              148.00,143.00 148.00,46.00 148.00,46.00 Z            M 27.00,170.00            C 53.23,178.58 80.61,183.43 108.00,186.17              108.00,186.17 128.00,188.04 128.00,188.04              128.00,188.04 141.00,188.04 141.00,188.04              141.00,188.04 152.00,189.00 152.00,189.00              152.00,189.00 164.00,189.00 164.00,189.00              164.00,189.00 174.00,188.04 174.00,188.04              174.00,188.04 186.00,188.04 186.00,188.04              186.00,188.04 207.00,186.17 207.00,186.17              234.39,183.43 261.77,178.58 288.00,170.00              288.00,170.00 288.00,190.00 288.00,190.00              288.00,190.00 267.00,195.35 267.00,195.35              267.00,195.35 220.00,203.72 220.00,203.72              220.00,203.72 179.00,207.00 179.00,207.00              179.00,207.00 136.00,207.00 136.00,207.00              136.00,207.00 124.00,206.09 124.00,206.09              101.82,204.57 79.80,202.36 58.00,197.58              58.00,197.58 27.00,190.00 27.00,190.00              27.00,190.00 27.00,170.00 27.00,170.00 Z            M 27.00,207.00            C 27.00,207.00 40.00,210.63 40.00,210.63              40.00,210.63 88.00,220.72 88.00,220.72              106.17,223.29 124.66,224.97 143.00,225.00              143.00,225.00 159.00,225.96 159.00,225.96              159.00,225.96 167.00,225.04 167.00,225.04              167.00,225.04 182.00,225.04 182.00,225.04              182.00,225.04 192.00,224.09 192.00,224.09              213.53,222.62 234.89,220.19 256.00,215.35              256.00,215.35 288.00,207.00 288.00,207.00              288.00,207.00 288.00,227.00 288.00,227.00              288.00,227.00 257.00,234.55 257.00,234.55              234.73,239.01 212.61,241.53 190.00,243.09              190.00,243.09 178.00,244.00 178.00,244.00              178.00,244.00 137.00,244.00 137.00,244.00              137.00,244.00 88.00,239.72 88.00,239.72              88.00,239.72 50.00,232.77 50.00,232.77              50.00,232.77 27.00,227.00 27.00,227.00              27.00,227.00 27.00,207.00 27.00,207.00 Z            M 27.00,244.00            C 27.00,244.00 54.00,251.12 54.00,251.12              54.00,251.12 96.00,258.71 96.00,258.71              96.00,258.71 125.00,261.09 125.00,261.09              125.00,261.09 137.00,262.00 137.00,262.00              137.00,262.00 178.00,262.00 178.00,262.00              178.00,262.00 190.00,260.96 190.00,260.96              190.00,260.96 200.00,260.96 200.00,260.96              220.11,258.91 240.30,255.87 260.00,251.35              260.00,251.35 288.00,244.00 288.00,244.00              288.00,244.00 288.00,256.00 288.00,256.00              287.94,264.34 287.08,264.06 274.00,267.23              274.00,267.23 238.00,274.75 238.00,274.75              207.15,279.89 176.21,281.05 145.00,281.00              145.00,281.00 123.00,280.00 123.00,280.00              123.00,280.00 83.00,275.59 83.00,275.59              83.00,275.59 41.00,267.23 41.00,267.23              33.21,265.34 27.17,265.86 27.00,257.00              27.00,257.00 27.00,244.00 27.00,244.00 Z" />
</svg>
